<svg width="24" height="28" viewBox="0 0 24 28" fill="none" xmlns="http://www.w3.org/2000/svg">
<path d="M17.833 8.99967V6.54134C17.833 5.7753 17.6821 5.01675 17.389 4.30902C17.0958 3.60129 16.6661 2.95823 16.1245 2.41655C15.5828 1.87488 14.9397 1.4452 14.232 1.15204C13.5243 0.858891 12.7657 0.708008 11.9997 0.708008C11.2336 0.708008 10.4751 0.858891 9.76735 1.15204C9.05962 1.4452 8.41656 1.87488 7.87489 2.41655C7.33321 2.95823 6.90353 3.60129 6.61038 4.30902C6.31722 5.01675 6.16634 5.7753 6.16634 6.54134V12.3747C6.16634 12.5957 6.25414 12.8077 6.41042 12.9639C6.5667 13.1202 6.77866 13.208 6.99967 13.208C7.22069 13.208 7.43265 13.1202 7.58893 12.9639C7.74521 12.8077 7.83301 12.5957 7.83301 12.3747V10.6663H14.4997V8.99967H7.83301V6.54134C7.83301 5.43627 8.27199 4.37646 9.0534 3.59506C9.8348 2.81366 10.8946 2.37467 11.9997 2.37467C13.1047 2.37467 14.1646 2.81366 14.946 3.59506C15.7274 4.37646 16.1663 5.43627 16.1663 6.54134V12.333C16.1663 12.554 16.2541 12.766 16.4104 12.9223C16.5667 13.0785 16.7787 13.1663 16.9997 13.1663C17.2207 13.1663 17.4326 13.0785 17.5889 12.9223C17.7452 12.766 17.833 12.554 17.833 12.333V10.6663H21.9997V25.6663H1.99967V10.6663H4.49967V8.99967H0.333008V25.7413C0.333008 26.1635 0.500701 26.5683 0.799196 26.8668C1.09769 27.1653 1.50254 27.333 1.92467 27.333H22.0747C22.4968 27.333 22.9017 27.1653 23.2002 26.8668C23.4986 26.5683 23.6663 26.1635 23.6663 25.7413V8.99967H17.833Z" fill="white"/>
</svg>
