<svg width="20" height="20" viewBox="0 0 20 20" fill="none" xmlns="http://www.w3.org/2000/svg">
<path d="M9.9999 -0.0214844C4.47428 -0.0214844 -0.0219727 4.47352 -0.0219727 9.99977C-0.0219727 15.526 4.47428 20.021 9.9999 20.021C15.5255 20.021 20.0218 15.526 20.0218 9.99977C20.0218 4.47352 15.5255 -0.0214844 9.9999 -0.0214844ZM9.9999 19.3535C4.8424 19.3535 0.646777 15.1573 0.646777 9.99977C0.646777 4.84227 4.8424 0.646016 9.9999 0.646016C15.1574 0.646016 19.353 4.84227 19.353 9.99977C19.353 15.1573 15.1574 19.3535 9.9999 19.3535Z" fill="white"/>
<path d="M12.1875 4.37503H10.52C8.39626 4.35378 8.12501 5.66815 8.12501 7.09065V8.12503H7.18751C7.14513 8.11936 7.10203 8.12355 7.06153 8.13725C7.02104 8.15096 6.98425 8.17381 6.95402 8.20404C6.92379 8.23427 6.90094 8.27106 6.88723 8.31155C6.87353 8.35204 6.86935 8.39515 6.87501 8.43753V10.3125C6.86935 10.3549 6.87353 10.398 6.88723 10.4385C6.90094 10.479 6.92379 10.5158 6.95402 10.546C6.98425 10.5762 7.02104 10.5991 7.06153 10.6128C7.10203 10.6265 7.14513 10.6307 7.18751 10.625H8.12501V15.3125C8.1198 15.355 8.12436 15.3981 8.13835 15.4385C8.15234 15.4789 8.17537 15.5156 8.20571 15.5457C8.23604 15.5759 8.27286 15.5987 8.31336 15.6124C8.35386 15.6262 8.39696 15.6305 8.43938 15.625H10.3488C10.5331 15.6463 10.6825 15.4969 10.6238 15.3125L10.625 10.625H12.1875C12.2299 10.6307 12.273 10.6265 12.3135 10.6128C12.354 10.5991 12.3908 10.5762 12.421 10.546C12.4512 10.5158 12.4741 10.479 12.4878 10.4385C12.5015 10.398 12.5057 10.3549 12.5 10.3125V8.43753C12.5057 8.39515 12.5015 8.35204 12.4878 8.31155C12.4741 8.27106 12.4512 8.23427 12.421 8.20404C12.3908 8.17381 12.354 8.15096 12.3135 8.13725C12.273 8.12355 12.2299 8.11936 12.1875 8.12503H10.6231L10.625 7.18753C10.6856 6.78815 10.6856 6.85315 11.0563 6.87503H12.1744C12.2613 6.85565 12.3538 6.86628 12.4188 6.80315C12.4838 6.74003 12.5213 6.65377 12.4994 6.56253V4.68753C12.5052 4.64519 12.5011 4.60209 12.4874 4.56159C12.4738 4.52109 12.451 4.48428 12.4208 4.45403C12.3907 4.42379 12.3539 4.40092 12.3134 4.38722C12.2729 4.37351 12.2299 4.36934 12.1875 4.37503Z" fill="white"/>
</svg>
