<svg width="200" height="80" viewBox="0 0 200 80" fill="none" xmlns="http://www.w3.org/2000/svg">
<rect width="200" height="80" fill="white"/>
<path d="M65.8294 29.7817C65.8294 30.8951 66.1451 31.6818 66.7766 32.1417C67.4081 32.6015 68.2339 32.8315 69.254 32.8315C70.5169 32.8315 71.6949 32.5047 72.7878 31.8512C73.905 31.1977 74.8765 30.3626 75.7023 29.346C76.5524 28.3052 77.2202 27.1675 77.706 25.933C78.1918 24.6986 78.4346 23.5004 78.4346 22.3386C78.4346 21.3704 78.2767 20.4022 77.961 19.434C77.6453 18.4415 77.1353 17.6065 76.4309 16.9287C75.1437 17.316 73.8565 17.9212 72.5692 18.7441C71.3063 19.5429 70.1769 20.5111 69.1811 21.6487C68.1853 22.7622 67.3717 24.0087 66.7402 25.3884C66.133 26.7681 65.8294 28.2326 65.8294 29.7817ZM70.3469 41.1823C70.7598 41.1581 71.197 41.1702 71.6584 41.2186C72.1442 41.2428 72.7514 41.2549 73.48 41.2549C75.6901 41.2549 77.8153 40.9281 79.8555 40.2746C81.9199 39.621 83.7414 38.677 85.3201 37.4426C86.9231 36.1839 88.1982 34.659 89.1454 32.8678C90.1167 31.0766 90.6027 29.0313 90.6027 26.7318C90.6027 25.4974 90.4082 24.2629 90.0198 23.0284C89.6312 21.7698 88.9875 20.6806 88.0889 19.7607C87.336 20.6079 86.6559 21.5035 86.0488 22.4475C85.4659 23.3673 84.8951 24.3113 84.3365 25.2795C83.8022 26.2477 83.2678 27.2401 82.7335 28.2567C82.2235 29.2492 81.677 30.2415 81.0941 31.234C80.5598 32.1538 79.904 33.1341 79.1268 34.1749C78.3739 35.1915 77.536 36.1718 76.6131 37.1158C75.6901 38.0356 74.6944 38.8586 73.6257 39.5847C72.557 40.3109 71.4641 40.8192 70.3469 41.1097V41.1823ZM61.9677 40.4924C61.9677 40.0809 62.4778 39.8752 63.4978 39.8752C64.1293 39.8752 64.7122 39.9236 65.2465 40.0204C65.8052 40.1172 66.3395 40.2262 66.8495 40.3472C67.3595 40.444 67.8574 40.5409 68.3432 40.6377C68.8532 40.7103 69.3754 40.7466 69.9097 40.7466C70.7841 40.7466 71.6342 40.4319 72.4599 39.8026C73.2857 39.149 74.0751 38.3261 74.8279 37.3337C75.6052 36.3412 76.3459 35.2399 77.0503 34.0297C77.7789 32.7952 78.4589 31.597 79.0904 30.4352C79.8676 29.0313 80.6083 27.7726 81.3127 26.6592C82.0413 25.5215 82.7457 24.5049 83.4257 23.6094C84.1057 22.6895 84.7858 21.8787 85.4659 21.1767C86.1459 20.4506 86.8381 19.797 87.5424 19.2161C87.1295 18.7804 86.6195 18.4052 86.0123 18.0906C85.4294 17.7517 84.7858 17.4734 84.0815 17.2555C83.4015 17.0135 82.6971 16.844 81.9685 16.7472C81.2641 16.6262 80.5719 16.5657 79.8919 16.5657C79.4061 16.5657 78.8961 16.5899 78.3618 16.6383C77.8275 16.6625 77.3417 16.723 76.9045 16.8198C77.5846 17.4734 78.0825 18.3084 78.3982 19.325C78.7139 20.3417 78.8718 21.2857 78.8718 22.157C78.8718 23.4157 78.6168 24.6986 78.1068 26.0057C77.5967 27.3127 76.8924 28.5109 75.9937 29.6001C75.1194 30.6652 74.0872 31.5486 72.8971 32.2506C71.707 32.9283 70.444 33.2672 69.1082 33.2672C68.3796 33.2672 67.6996 33.1462 67.0681 32.9041C66.4366 32.6621 65.8901 32.3232 65.4287 31.8875C64.9915 31.4276 64.6394 30.8951 64.3722 30.29C64.1293 29.6606 64.0079 28.9708 64.0079 28.2204C64.0079 26.7197 64.3722 25.3158 65.1008 24.0087C65.8294 22.7017 66.7645 21.5398 67.906 20.5232C69.0718 19.5066 70.3591 18.6594 71.7677 17.9817C73.1764 17.2797 74.5729 16.7956 75.9573 16.5294C75.3501 16.1179 74.658 15.8153 73.8807 15.6217C73.1278 15.428 72.3749 15.3312 71.622 15.3312C69.7276 15.3312 68.0517 15.7911 66.5945 16.7109C65.1372 17.6307 63.8621 18.8409 62.7692 20.3417C62.0892 21.2857 61.5791 22.2297 61.2391 23.1737C60.899 24.0935 60.644 24.9286 60.474 25.6789C60.304 26.4292 60.1826 27.0344 60.1097 27.4943C60.0369 27.9542 59.9518 28.1841 59.8547 28.1841C59.7576 28.1841 59.709 28.0994 59.709 27.93C59.709 27.8574 59.7332 27.5911 59.7818 27.1312C59.8304 26.6713 59.9276 26.1025 60.0733 25.4247C60.2433 24.747 60.474 24.0087 60.7655 23.21C61.0569 22.4112 61.4455 21.6366 61.9313 20.8863C63.2185 18.8772 64.7122 17.3765 66.4123 16.3841C68.1124 15.3917 69.8733 14.8955 71.6949 14.8955C72.3992 14.8955 73.1885 15.0165 74.0629 15.2586C74.9615 15.5006 75.763 15.8879 76.4674 16.4204C77.1231 16.3236 77.7182 16.251 78.2525 16.2026C78.8111 16.1542 79.2726 16.13 79.6369 16.13C80.3655 16.13 81.1063 16.1905 81.8592 16.3115C82.6364 16.4083 83.3893 16.5778 84.1179 16.8198C84.8465 17.0619 85.5266 17.3644 86.1581 17.7275C86.8138 18.0664 87.3846 18.4658 87.8703 18.9257C88.3318 18.5626 88.8175 18.2116 89.3276 17.8727C89.8619 17.5338 90.3477 17.2434 90.7848 17.0014C91.2461 16.7351 91.6351 16.5294 91.9506 16.3841C92.2661 16.2147 92.4366 16.13 92.4607 16.13C92.5823 16.13 92.6428 16.2389 92.6428 16.4567C92.6428 16.5052 92.5095 16.5899 92.2421 16.7109C91.9994 16.8319 91.6715 17.0135 91.2584 17.2555C90.87 17.4975 90.4205 17.8001 89.9105 18.1632C89.4004 18.5021 88.8904 18.9378 88.3804 19.4703C89.279 20.4385 89.9469 21.5398 90.3841 22.7743C90.8213 23.9846 91.0398 25.2432 91.0398 26.5503C91.0398 29.0918 90.5174 31.3066 89.4733 33.1946C88.4532 35.0826 87.081 36.6559 85.3566 37.9146C83.6565 39.1732 81.7013 40.1172 79.4911 40.7466C77.3053 41.3759 75.0587 41.6906 72.7514 41.6906C72.2656 41.6906 71.7677 41.6543 71.2577 41.5817C70.7719 41.509 70.2862 41.4727 69.8004 41.4727C69.1689 41.4727 68.5375 41.509 67.906 41.5817C67.2988 41.6543 66.6795 41.6906 66.048 41.6906C63.3278 41.6906 61.9677 41.2912 61.9677 40.4924ZM93.1411 39.8752C93.1411 40.2141 93.2016 40.4924 93.3233 40.7103C93.469 40.9281 93.6876 41.037 93.9791 41.037C94.5132 41.037 95.1566 40.7587 95.9099 40.202C96.6626 39.621 97.3912 38.9191 98.0958 38.0961C98.7997 37.2732 99.395 36.4138 99.8809 35.5183C100.391 34.5985 100.646 33.7997 100.646 33.122C100.646 32.7589 100.548 32.4563 100.355 32.2143C100.184 31.948 99.905 31.8149 99.5166 31.8149C98.788 31.8149 98.0346 32.1175 97.2579 32.7226C96.5045 33.3035 95.8247 34.0175 95.2177 34.8647C94.6101 35.7119 94.1124 36.5954 93.724 37.5152C93.335 38.435 93.1411 39.2217 93.1411 39.8752ZM104.799 31.5607C104.629 31.7544 104.374 32.0932 104.034 32.5774C103.718 33.0372 103.366 33.5698 102.978 34.1749C102.589 34.7558 102.188 35.373 101.775 36.0266C101.386 36.6801 101.022 37.3095 100.682 37.9146C100.342 38.5197 100.063 39.0522 99.8445 39.5121C99.65 39.972 99.553 40.3109 99.553 40.5287C99.553 40.8676 99.7593 41.037 100.172 41.037C100.731 41.037 101.459 40.6255 102.358 39.8026C103.281 38.9554 104.277 37.9146 105.346 36.6801C105.564 36.4138 105.698 36.2566 105.746 36.2081C105.794 36.1355 105.843 36.0992 105.892 36.0992C105.965 36.0992 106.013 36.1234 106.038 36.1718C106.086 36.2202 106.111 36.2686 106.111 36.317C106.111 36.3412 106.038 36.4381 105.892 36.6075C105.77 36.7527 105.612 36.9343 105.418 37.1521C105.224 37.37 105.005 37.612 104.763 37.8783C104.544 38.1446 104.326 38.3866 104.107 38.6044C103.257 39.4758 102.492 40.1778 101.812 40.7103C101.131 41.2186 100.548 41.4727 100.063 41.4727C99.5771 41.4727 99.1887 41.3033 98.8973 40.9644C98.6058 40.6255 98.4601 39.9599 98.4601 38.9675C98.4601 38.8465 98.4601 38.7375 98.4601 38.6407C98.4842 38.5197 98.4965 38.4108 98.4965 38.314C98.2292 38.5802 97.9013 38.8949 97.5129 39.258C97.1486 39.621 96.7595 39.972 96.3471 40.3109C95.934 40.6255 95.5209 40.9039 95.1084 41.146C94.6953 41.3638 94.3187 41.4727 93.9791 41.4727C93.5172 41.4727 93.1288 41.3759 92.8133 41.1823C92.5218 40.9886 92.2909 40.7466 92.1211 40.4561C91.9506 40.1415 91.8296 39.7905 91.7568 39.4032C91.708 38.9917 91.6839 38.5802 91.6839 38.1687C91.6839 37.8783 91.6956 37.5999 91.7203 37.3337C91.7685 37.0432 91.8173 36.7527 91.8661 36.4623C91.8173 36.4623 91.7808 36.4865 91.7568 36.5349C91.732 36.5591 91.6956 36.5712 91.6475 36.5712C91.5499 36.5712 91.5017 36.5107 91.5017 36.3897C91.5017 36.317 91.5382 36.2444 91.611 36.1718C91.6839 36.0992 91.8413 35.9177 92.0846 35.6272C92.57 35.0221 93.1164 34.4654 93.724 33.957C94.331 33.4487 94.9503 33.0009 95.582 32.6137C96.2378 32.2264 96.8936 31.9238 97.5493 31.706C98.2292 31.4881 98.8849 31.3792 99.5166 31.3792C100.075 31.3792 100.476 31.5607 100.719 31.9238C100.961 32.2627 101.083 32.6742 101.083 33.1583C101.083 33.594 101.047 33.9207 100.974 34.1386L101.047 34.2112C101.362 33.7029 101.605 33.2793 101.775 32.9404C101.969 32.6015 102.127 32.3474 102.249 32.178C102.37 31.9843 102.479 31.8512 102.577 31.7786C102.698 31.6818 102.856 31.6334 103.05 31.6334L104.799 31.5607ZM114.004 25.6426C114.004 25.3279 114.113 25.0254 114.332 24.7349C114.55 24.4202 114.867 24.2629 115.279 24.2629C115.546 24.2629 115.753 24.3597 115.898 24.5534C116.044 24.7228 116.117 24.9406 116.117 25.2069C116.117 25.5215 116.008 25.8362 115.789 26.1509C115.57 26.4414 115.255 26.5866 114.842 26.5866C114.575 26.5866 114.368 26.5018 114.222 26.3324C114.077 26.1388 114.004 25.9089 114.004 25.6426ZM112.729 31.3792C111.636 33.1704 110.75 34.6106 110.069 35.6998C109.414 36.7649 108.903 37.612 108.539 38.2414C108.2 38.8465 107.969 39.2943 107.847 39.5847C107.726 39.851 107.665 40.0809 107.665 40.2746C107.665 40.5892 107.738 40.795 107.883 40.8918C108.029 40.9886 108.187 41.037 108.357 41.037C108.648 41.037 108.965 40.9523 109.304 40.7829C109.644 40.6135 109.996 40.4077 110.361 40.1657C110.725 39.8994 111.078 39.6089 111.417 39.2943C111.782 38.9796 112.109 38.6649 112.401 38.3503C112.644 38.1082 112.887 37.8541 113.13 37.5878C113.397 37.2974 113.628 37.0311 113.822 36.789C114.04 36.547 114.222 36.3534 114.368 36.2081C114.514 36.0387 114.599 35.954 114.623 35.954C114.769 35.954 114.842 36.0145 114.842 36.1355C114.842 36.1839 114.66 36.426 114.295 36.8617C113.956 37.2732 113.397 37.8783 112.619 38.677C110.823 40.5409 109.389 41.4727 108.321 41.4727C107.762 41.4727 107.325 41.3033 107.009 40.9644C106.718 40.6014 106.572 40.1415 106.572 39.5847C106.572 38.9796 106.694 38.3745 106.936 37.7694C107.18 37.1642 107.471 36.5712 107.811 35.9903C108.175 35.4094 108.552 34.8526 108.94 34.3201C109.353 33.7876 109.717 33.2914 110.033 32.8315L109.96 32.7589C109.741 32.9767 109.389 33.3398 108.903 33.8481C108.418 34.3564 107.738 35.1068 106.863 36.0992C106.669 36.317 106.548 36.4502 106.499 36.4986C106.451 36.547 106.402 36.5712 106.353 36.5712C106.256 36.5712 106.208 36.4986 106.208 36.3534C106.208 36.3049 106.269 36.2202 106.39 36.0992C106.511 35.954 106.815 35.603 107.301 35.0463C107.544 34.78 107.811 34.4895 108.102 34.1749C108.418 33.836 108.721 33.5092 109.013 33.1946C109.304 32.8557 109.572 32.541 109.814 32.2506C110.082 31.9601 110.288 31.7181 110.434 31.5244L112.729 31.3792ZM116.761 40.0204C116.761 40.2625 116.81 40.4924 116.907 40.7103C117.028 40.9281 117.186 41.037 117.38 41.037C118.085 41.037 118.85 40.7466 119.675 40.1657C120.502 39.5606 121.267 38.8465 121.971 38.0235C122.699 37.1763 123.294 36.3049 123.756 35.4094C124.242 34.5138 124.484 33.7634 124.484 33.1583C124.484 32.6742 124.375 32.3353 124.156 32.1417C123.963 31.9238 123.622 31.8149 123.136 31.8149C122.578 31.8149 121.934 32.069 121.206 32.5774C120.477 33.0615 119.785 33.7029 119.129 34.5017C118.473 35.3004 117.915 36.1839 117.453 37.1521C116.992 38.1203 116.761 39.0764 116.761 40.0204ZM128.382 31.597L118.692 47.9355L118.765 48.0081C120.222 46.1686 121.728 44.3652 123.282 42.5983C124.861 40.8313 126.415 39.1127 127.945 37.4426C128.528 36.8132 128.881 36.426 129.002 36.2807C129.148 36.1113 129.245 36.0266 129.293 36.0266C129.439 36.0266 129.512 36.0992 129.512 36.2444C129.512 36.2686 129.391 36.4138 129.148 36.6801C128.929 36.9222 128.662 37.2126 128.346 37.5515C128.055 37.8662 127.751 38.1929 127.435 38.5318C127.144 38.8465 126.925 39.0886 126.78 39.258C126.342 39.7663 125.687 40.4924 124.812 41.4364C123.963 42.3804 123.039 43.4092 122.043 44.5226C121.072 45.6602 120.113 46.81 119.165 47.9718C118.243 49.1337 117.514 50.1745 116.98 51.0943L114.648 51.3484L122.881 37.842L122.809 37.7694C122.639 37.963 122.36 38.2655 121.971 38.677C121.582 39.0886 121.133 39.5 120.623 39.9115C120.113 40.323 119.579 40.6861 119.02 41.0007C118.461 41.3154 117.927 41.4727 117.417 41.4727C116.713 41.4727 116.178 41.1823 115.814 40.6014C115.474 39.9962 115.304 39.1975 115.304 38.205C115.304 37.7452 115.34 37.3337 115.413 36.9706C115.511 36.5833 115.559 36.3655 115.559 36.317C115.559 36.2686 115.522 36.2444 115.449 36.2444C115.304 36.2444 115.207 36.3049 115.158 36.426C115.11 36.547 115.061 36.6075 115.012 36.6075C114.988 36.6075 114.952 36.5954 114.903 36.5712C114.855 36.5228 114.83 36.4502 114.83 36.3534C114.83 36.3049 114.952 36.1476 115.194 35.8814C115.462 35.5909 115.802 35.2278 116.214 34.7921C116.773 34.2112 117.369 33.715 118 33.3035C118.631 32.8678 119.251 32.5169 119.858 32.2506C120.489 31.9601 121.085 31.7423 121.643 31.597C122.202 31.4518 122.699 31.3792 123.136 31.3792C123.646 31.3792 124.072 31.5123 124.411 31.7786C124.752 32.0449 124.922 32.5047 124.922 33.1583C124.922 33.3035 124.885 33.5214 124.812 33.8118C124.764 34.0781 124.728 34.2717 124.703 34.3927L124.776 34.4654L126.379 31.6697L128.382 31.597ZM136.386 31.3792C135.269 33.1704 134.358 34.5864 133.653 35.6272C132.973 36.6438 132.439 37.4547 132.05 38.0598C131.686 38.6407 131.431 39.0886 131.285 39.4032C131.164 39.7178 131.103 40.0567 131.103 40.4198C131.103 40.6377 131.164 40.795 131.285 40.8918C131.431 40.9886 131.577 41.037 131.722 41.037C132.184 41.037 132.803 40.7224 133.58 40.093C134.382 39.4637 135.22 38.677 136.094 37.733C136.969 36.789 137.819 35.7603 138.644 34.6469C139.495 33.5335 140.199 32.4926 140.757 31.5244L143.089 31.3792C142.919 31.6697 142.664 32.0569 142.324 32.541C142.008 33.0252 141.644 33.5577 141.231 34.1386C140.818 34.7195 140.393 35.3246 139.956 35.954C139.543 36.5833 139.154 37.1884 138.79 37.7694C138.45 38.3261 138.158 38.8465 137.916 39.3306C137.697 39.7905 137.588 40.1535 137.588 40.4198C137.588 40.8313 137.794 41.037 138.207 41.037C138.475 41.037 138.899 40.8434 139.482 40.4561C140.065 40.0689 140.781 39.4274 141.632 38.5318C142.166 37.9751 142.579 37.5394 142.87 37.2247C143.186 36.8858 143.417 36.6438 143.563 36.4986C143.708 36.3292 143.794 36.2202 143.818 36.1718C143.866 36.1234 143.915 36.0992 143.963 36.0992C144.085 36.0992 144.146 36.1597 144.146 36.2807C144.146 36.3049 144.073 36.4138 143.927 36.6075C143.781 36.7769 143.599 36.9827 143.38 37.2247C143.162 37.4668 142.919 37.7209 142.652 37.9872C142.409 38.2535 142.191 38.4955 141.996 38.7134C141.073 39.6574 140.296 40.3593 139.664 40.8192C139.058 41.2549 138.511 41.4727 138.025 41.4727C137.71 41.4727 137.442 41.4001 137.224 41.2549C137.029 41.0855 136.872 40.8797 136.75 40.6377C136.653 40.3956 136.58 40.1415 136.531 39.8752C136.507 39.6089 136.495 39.3669 136.495 39.149C136.495 38.6892 136.58 38.2292 136.75 37.7694L136.677 37.6967C136.41 37.9872 136.082 38.3503 135.693 38.786C135.305 39.1975 134.88 39.6089 134.418 40.0204C133.957 40.4077 133.484 40.7466 132.998 41.037C132.536 41.3275 132.099 41.4727 131.686 41.4727C131.103 41.4727 130.678 41.2912 130.411 40.9281C130.144 40.5409 130.01 40.0689 130.01 39.5121C130.01 38.8344 130.132 38.1929 130.375 37.5878C130.642 36.9585 130.97 36.3775 131.358 35.845C131.747 35.2883 132.16 34.7558 132.597 34.2475C133.034 33.715 133.422 33.1946 133.763 32.6863L133.69 32.6137C133.156 33.0252 132.597 33.5335 132.014 34.1386C131.455 34.7437 130.897 35.3367 130.338 35.9177C130.095 36.1839 129.95 36.3534 129.901 36.426C129.852 36.4986 129.792 36.5349 129.719 36.5349C129.622 36.5349 129.573 36.4623 129.573 36.317C129.573 36.2929 129.585 36.2566 129.609 36.2081C129.658 36.1355 129.743 36.0266 129.864 35.8814C129.986 35.7361 130.168 35.5425 130.411 35.3004C130.678 35.0342 131.018 34.6832 131.431 34.2475C131.795 33.8602 132.208 33.4366 132.67 32.9767C133.156 32.5169 133.714 32.0327 134.346 31.5244L136.386 31.3792ZM152.039 25.6426C152.039 25.3279 152.149 25.0254 152.367 24.7349C152.586 24.4202 152.901 24.2629 153.314 24.2629C153.581 24.2629 153.788 24.3597 153.934 24.5534C154.08 24.7228 154.152 24.9406 154.152 25.2069C154.152 25.5215 154.043 25.8362 153.825 26.1509C153.606 26.4414 153.29 26.5866 152.877 26.5866C152.61 26.5866 152.404 26.5018 152.258 26.3324C152.112 26.1388 152.039 25.9089 152.039 25.6426ZM150.764 31.3792C149.671 33.1704 148.785 34.6106 148.105 35.6998C147.449 36.7649 146.939 37.612 146.575 38.2414C146.234 38.8465 146.004 39.2943 145.883 39.5847C145.761 39.851 145.7 40.0809 145.7 40.2746C145.7 40.5892 145.773 40.795 145.919 40.8918C146.065 40.9886 146.222 41.037 146.393 41.037C146.684 41.037 147 40.9523 147.34 40.7829C147.679 40.6135 148.032 40.4077 148.396 40.1657C148.761 39.8994 149.113 39.6089 149.453 39.2943C149.817 38.9796 150.145 38.6649 150.436 38.3503C150.679 38.1082 150.922 37.8541 151.165 37.5878C151.432 37.2974 151.663 37.0311 151.857 36.789C152.076 36.547 152.258 36.3534 152.404 36.2081C152.549 36.0387 152.634 35.954 152.659 35.954C152.804 35.954 152.877 36.0145 152.877 36.1355C152.877 36.1839 152.695 36.426 152.331 36.8617C151.991 37.2732 151.432 37.8783 150.655 38.677C148.858 40.5409 147.424 41.4727 146.356 41.4727C145.797 41.4727 145.36 41.3033 145.045 40.9644C144.753 40.6014 144.607 40.1415 144.607 39.5847C144.607 38.9796 144.728 38.3745 144.972 37.7694C145.214 37.1642 145.506 36.5712 145.846 35.9903C146.21 35.4094 146.586 34.8526 146.975 34.3201C147.388 33.7876 147.752 33.2914 148.068 32.8315L147.996 32.7589C147.777 32.9767 147.424 33.3398 146.939 33.8481C146.453 34.3564 145.773 35.1068 144.899 36.0992C144.704 36.317 144.583 36.4502 144.535 36.4986C144.486 36.547 144.437 36.5712 144.389 36.5712C144.291 36.5712 144.243 36.4986 144.243 36.3534C144.243 36.3049 144.304 36.2202 144.425 36.0992C144.546 35.954 144.85 35.603 145.336 35.0463C145.579 34.78 145.846 34.4895 146.138 34.1749C146.453 33.836 146.757 33.5092 147.048 33.1946C147.34 32.8557 147.606 32.541 147.85 32.2506C148.117 31.9601 148.323 31.7181 148.469 31.5244L150.764 31.3792ZM153.558 41.4727C154.48 39.9962 155.282 38.7375 155.962 37.6967C156.666 36.6317 157.249 35.7482 157.711 35.0463C158.196 34.3443 158.561 33.7755 158.804 33.3398C159.047 32.9041 159.168 32.5652 159.168 32.3232C159.168 31.9843 158.961 31.8149 158.549 31.8149C158.281 31.8149 157.917 31.948 157.456 32.2143C157.019 32.4563 156.436 32.9526 155.707 33.7029C155.148 34.2838 154.699 34.7679 154.359 35.1552C154.019 35.5183 153.752 35.8087 153.558 36.0266C153.387 36.2444 153.254 36.4018 153.157 36.4986C153.084 36.5712 153.035 36.6075 153.011 36.6075C152.89 36.6075 152.829 36.547 152.829 36.426C152.829 36.3775 152.89 36.2686 153.011 36.0992C153.157 35.9298 153.339 35.724 153.558 35.482C153.776 35.2399 154.007 34.9858 154.25 34.7195C154.517 34.4532 154.76 34.187 154.979 33.9207C155.755 33.0735 156.436 32.4442 157.019 32.0327C157.626 31.597 158.185 31.3792 158.695 31.3792C159.156 31.3792 159.508 31.5607 159.751 31.9238C159.994 32.2627 160.115 32.65 160.115 33.0857C160.115 33.4487 160.03 33.8602 159.86 34.3201C159.69 34.78 159.484 35.2399 159.241 35.6998C158.998 36.1597 158.743 36.5954 158.476 37.0069C158.209 37.4184 157.99 37.7452 157.82 37.9872L157.893 38.0598C158.864 36.9464 159.739 36.0508 160.516 35.373C161.293 34.6953 161.767 34.1144 161.937 33.6303C162.131 33.0978 162.422 32.5895 162.811 32.1054C163.2 31.6212 163.71 31.3792 164.341 31.3792C164.924 31.3792 165.216 31.5729 165.216 31.9601C165.216 32.3232 164.997 32.6742 164.56 33.013C164.147 33.3277 163.686 33.6787 163.176 34.066C162.666 34.4532 162.192 34.8769 161.755 35.3367C161.342 35.7966 161.135 36.3412 161.135 36.9706C161.135 37.3337 161.245 37.6362 161.463 37.8783C161.706 38.0961 161.997 38.205 162.338 38.205C162.945 38.205 163.491 37.963 163.977 37.4789C164.39 37.0674 164.681 36.7406 164.851 36.4986C165.021 36.2323 165.143 36.0992 165.216 36.0992C165.362 36.0992 165.434 36.1597 165.434 36.2807C165.434 36.3292 165.325 36.4865 165.106 36.7527C164.888 37.019 164.693 37.2489 164.524 37.4426C164.159 37.8541 163.783 38.1446 163.394 38.314C163.005 38.4834 162.641 38.5681 162.301 38.5681C161.888 38.5681 161.512 38.4471 161.172 38.205C160.856 37.9388 160.698 37.5878 160.698 37.1521C160.698 36.7406 160.759 36.3775 160.88 36.0629C161.001 35.724 161.184 35.4094 161.427 35.1189L161.354 35.0463C160.407 35.9177 159.484 36.8738 158.585 37.9146C157.686 38.9554 156.775 40.0689 155.853 41.2549L153.558 41.4727ZM173.34 25.6426C173.34 25.3279 173.449 25.0254 173.668 24.7349C173.886 24.4202 174.202 24.2629 174.615 24.2629C174.882 24.2629 175.089 24.3597 175.234 24.5534C175.38 24.7228 175.453 24.9406 175.453 25.2069C175.453 25.5215 175.344 25.8362 175.125 26.1509C174.906 26.4414 174.591 26.5866 174.178 26.5866C173.91 26.5866 173.704 26.5018 173.559 26.3324C173.413 26.1388 173.34 25.9089 173.34 25.6426ZM172.065 31.3792C170.972 33.1704 170.085 34.6106 169.405 35.6998C168.75 36.7649 168.24 37.612 167.875 38.2414C167.535 38.8465 167.305 39.2943 167.183 39.5847C167.061 39.851 167.001 40.0809 167.001 40.2746C167.001 40.5892 167.074 40.795 167.219 40.8918C167.365 40.9886 167.523 41.037 167.693 41.037C167.985 41.037 168.3 40.9523 168.64 40.7829C168.981 40.6135 169.333 40.4077 169.697 40.1657C170.061 39.8994 170.413 39.6089 170.753 39.2943C171.118 38.9796 171.446 38.6649 171.737 38.3503C171.98 38.1082 172.223 37.8541 172.466 37.5878C172.733 37.2974 172.963 37.0311 173.158 36.789C173.376 36.547 173.559 36.3534 173.704 36.2081C173.85 36.0387 173.935 35.954 173.959 35.954C174.105 35.954 174.178 36.0145 174.178 36.1355C174.178 36.1839 173.996 36.426 173.631 36.8617C173.291 37.2732 172.733 37.8783 171.956 38.677C170.158 40.5409 168.726 41.4727 167.657 41.4727C167.098 41.4727 166.661 41.3033 166.345 40.9644C166.054 40.6014 165.908 40.1415 165.908 39.5847C165.908 38.9796 166.03 38.3745 166.272 37.7694C166.515 37.1642 166.806 36.5712 167.147 35.9903C167.511 35.4094 167.888 34.8526 168.276 34.3201C168.689 33.7876 169.053 33.2914 169.369 32.8315L169.296 32.7589C169.077 32.9767 168.726 33.3398 168.24 33.8481C167.754 34.3564 167.074 35.1068 166.199 36.0992C166.005 36.317 165.884 36.4502 165.835 36.4986C165.786 36.547 165.738 36.5712 165.689 36.5712C165.592 36.5712 165.544 36.4986 165.544 36.3534C165.544 36.3049 165.604 36.2202 165.726 36.0992C165.847 35.954 166.151 35.603 166.637 35.0463C166.879 34.78 167.147 34.4895 167.438 34.1749C167.754 33.836 168.057 33.5092 168.349 33.1946C168.64 32.8557 168.908 32.541 169.15 32.2506C169.418 31.9601 169.624 31.7181 169.77 31.5244L172.065 31.3792Z" fill="#232323"/>
<path d="M31.0478 46.9913C31.0478 47.9594 31.315 48.734 31.8493 49.315C32.4079 49.8959 33.2458 50.1863 34.363 50.1863C35.5531 50.1863 36.7311 49.7991 37.8969 49.0245C39.0627 48.2257 40.107 47.2575 41.03 46.1199C41.9772 44.958 42.7301 43.7236 43.2887 42.4165C43.8716 41.1094 44.163 39.9234 44.163 38.8583C44.163 37.987 44.0659 37.2487 43.8716 36.6436C43.7016 36.0385 43.4587 35.5665 43.143 35.2276C41.9286 35.518 40.617 36.0022 39.2084 36.6799C37.7997 37.3576 36.4882 38.2048 35.2738 39.2214C34.0594 40.238 33.0515 41.3999 32.25 42.707C31.4485 44.014 31.0478 45.4422 31.0478 46.9913ZM53.198 46.4103C53.878 46.5556 54.5095 46.7976 55.0924 47.1365C55.6996 47.4511 56.2218 47.8385 56.659 48.2983C57.1204 48.7582 57.4847 49.2908 57.7519 49.8959C58.0191 50.501 58.1526 51.1666 58.1526 51.8928C58.1526 52.982 57.8734 54.0108 57.3147 54.979C56.7561 55.923 56.0396 56.758 55.1653 57.4842C54.3152 58.2103 53.3559 58.7913 52.2872 59.227C51.2185 59.6385 50.1742 59.8442 49.1541 59.8442C48.5955 59.8442 48.0612 59.7594 47.5511 59.59C47.0654 59.4206 46.6282 59.1906 46.2396 58.9002C45.851 58.5855 45.5353 58.2103 45.2924 57.7746C45.0738 57.339 44.9645 56.8428 44.9645 56.286C44.9645 55.4388 45.171 54.6764 45.5839 53.9986C46.021 53.2967 46.4582 52.7279 46.8954 52.2922C47.0654 52.1228 47.2597 51.9412 47.4783 51.7476C47.6969 51.5539 47.9033 51.3845 48.0976 51.2393C48.2919 51.0698 48.4619 50.9367 48.6077 50.8399C48.7534 50.7431 48.8384 50.6946 48.8627 50.6946C48.9841 50.6946 49.0448 50.7673 49.0448 50.9125C49.0448 50.9851 48.8869 51.1303 48.5712 51.3482C48.2798 51.5418 47.8548 51.9049 47.2961 52.4374C46.7375 52.9699 46.2761 53.5751 45.9117 54.2528C45.5717 54.9305 45.4017 55.5599 45.4017 56.1408C45.4017 57.1574 45.7296 57.9562 46.3853 58.5371C47.0654 59.118 47.9033 59.4085 48.8991 59.4085C49.9192 59.4085 50.8421 59.1543 51.6679 58.646C52.518 58.1135 53.2466 57.4358 53.8538 56.6128C54.4852 55.7898 54.971 54.8942 55.311 53.926C55.651 52.9578 55.821 52.0138 55.821 51.094C55.821 50.2711 55.7239 49.5812 55.5296 49.0245C55.3353 48.4678 55.0924 48.02 54.801 47.6811C54.5095 47.318 54.1816 47.0639 53.8173 46.9186C53.453 46.7734 53.0887 46.7008 52.7244 46.7008C52.4329 46.7008 52.2022 46.725 52.0322 46.7734C51.8865 46.8218 51.7286 46.8702 51.5586 46.9186C51.4129 46.9671 51.2307 47.0154 51.0121 47.0639C50.8178 47.1123 50.5385 47.1365 50.1742 47.1365C49.7128 47.1365 49.482 46.9671 49.482 46.6282C49.482 46.4345 49.5791 46.2893 49.7735 46.1925C49.992 46.0957 50.3685 46.0473 50.9028 46.0473C51.2671 46.0473 51.5343 46.0594 51.7043 46.0836C51.8986 46.1078 52.0686 46.1199 52.2143 46.1199C52.943 46.1199 53.6109 45.9142 54.2181 45.5026C54.8252 45.0911 55.3353 44.5828 55.7482 43.9777C56.1611 43.3484 56.4768 42.6706 56.6954 41.9445C56.9382 41.2183 57.0597 40.5285 57.0597 39.875C57.0597 38.9551 56.9261 38.2048 56.659 37.6239C56.3918 37.043 55.9425 36.5588 55.311 36.1716C54.1938 36.9219 53.198 37.8538 52.3236 38.9673C51.4493 40.0565 50.6478 41.2183 49.9192 42.4528C49.1906 43.6873 48.4984 44.9338 47.8426 46.1925C47.1868 47.4511 46.5189 48.6251 45.8389 49.7143C45.1103 50.8762 44.2602 52.0622 43.2887 53.2725C42.3172 54.4828 41.2485 55.572 40.0827 56.5402C38.9169 57.5084 37.654 58.3071 36.2939 58.9365C34.9581 59.5416 33.5373 59.8442 32.0314 59.8442C31.4 59.8442 30.8171 59.7716 30.2827 59.6263C29.7484 59.4569 29.2748 59.227 28.8619 58.9365C28.4733 58.646 28.1697 58.3193 27.9511 57.9562C27.7326 57.5689 27.6233 57.1574 27.6233 56.7217C27.6233 56.3102 27.769 55.9714 28.0604 55.7051C28.3519 55.4146 28.7041 55.2694 29.1169 55.2694C30.0156 55.2694 30.4649 55.7051 30.4649 56.5765C30.4649 56.8185 30.4042 57.0485 30.2827 57.2663C30.1613 57.46 30.1006 57.6536 30.1006 57.8473C30.1006 58.2588 30.2585 58.6218 30.5742 58.9365C30.8899 59.2511 31.4364 59.4085 32.2136 59.4085C33.1851 59.4085 34.1445 59.2511 35.0917 58.9365C36.0389 58.6218 36.9739 58.0772 37.8969 57.3026C38.8198 56.5281 39.7549 55.4994 40.7021 54.2165C41.6736 52.9094 42.6694 51.2634 43.6894 49.2786C44.4909 47.7295 45.2802 46.3135 46.0575 45.0306C46.859 43.7478 47.6969 42.5617 48.5712 41.4725C49.4698 40.3833 50.4292 39.3788 51.4493 38.459C52.4694 37.5391 53.5866 36.6799 54.801 35.8811C53.7323 35.397 52.6029 35.0582 51.4129 34.8645C50.2228 34.6708 49.0327 34.574 47.8426 34.574C46.4825 34.574 45.086 34.7434 43.653 35.0823C44.2116 35.5906 44.6124 36.2563 44.8552 37.0793C45.1224 37.9022 45.256 38.6768 45.256 39.403C45.256 40.71 44.9524 42.0413 44.3452 43.3968C43.7623 44.7523 42.973 45.9746 41.9772 47.0639C40.9814 48.1531 39.8277 49.0487 38.5162 49.7506C37.2047 50.4284 35.8325 50.7673 34.3995 50.7673C33.3065 50.7673 32.3715 50.4405 31.5943 49.787C30.8414 49.1334 30.4649 48.1652 30.4649 46.8823C30.4649 45.5026 30.8535 44.1714 31.6307 42.8885C32.4322 41.5814 33.4401 40.3954 34.6545 39.3303C35.8689 38.2411 37.1925 37.3213 38.6255 36.571C40.0827 35.7964 41.4671 35.2518 42.7787 34.9371C42.1958 34.4772 41.5522 34.1505 40.8478 33.9568C40.1434 33.739 39.427 33.63 38.6984 33.63C37.7269 33.63 36.7918 33.7753 35.8932 34.0657C35.0188 34.332 34.1931 34.6951 33.4158 35.155C32.6629 35.5906 31.9828 36.0868 31.3757 36.6436C30.7685 37.2003 30.2706 37.7691 29.882 38.35C29.3234 39.1488 28.8984 39.8145 28.6069 40.347C28.3397 40.8553 28.1454 41.2668 28.024 41.5814C27.9026 41.8719 27.8297 42.0776 27.8054 42.1986C27.7811 42.2954 27.7326 42.3439 27.6597 42.3439C27.5383 42.3439 27.4775 42.2834 27.4775 42.1623C27.4775 42.0655 27.6233 41.654 27.9147 40.9279C28.2304 40.1775 28.7648 39.2819 29.5177 38.2411C30.0034 37.5634 30.5742 36.9219 31.23 36.3168C31.91 35.6874 32.6386 35.1428 33.4158 34.683C34.2173 34.2231 35.0674 33.86 35.966 33.5937C36.8646 33.3274 37.7876 33.1943 38.7348 33.1943C39.5605 33.1943 40.362 33.3274 41.1393 33.5937C41.9407 33.86 42.6572 34.2473 43.2887 34.7556C44.0902 34.5619 44.8795 34.4167 45.6567 34.3199C46.4339 34.1988 47.2111 34.1383 47.9883 34.1383C50.5628 34.1383 53.0158 34.6103 55.3474 35.5543C55.7603 35.3365 56.1854 35.1065 56.6225 34.8645C57.084 34.6225 57.509 34.5014 57.8976 34.5014C57.9947 34.5014 58.0433 34.5498 58.0433 34.6466C58.0433 34.6951 57.9947 34.7434 57.8976 34.7919C57.8005 34.8161 57.6548 34.8645 57.4604 34.9371C57.2905 34.9855 57.0719 35.0823 56.8047 35.2276C56.5375 35.3486 56.2218 35.5302 55.8575 35.7722C56.8533 36.2805 57.6548 36.9462 58.2619 37.7691C58.8691 38.5921 59.1727 39.5482 59.1727 40.6374C59.1727 41.412 58.9906 42.1139 58.6262 42.7433C58.2619 43.3726 57.7883 43.9293 57.2054 44.4134C56.6225 44.8975 55.9789 45.2969 55.2746 45.6116C54.5702 45.9262 53.878 46.1683 53.198 46.3377V46.4103ZM69.6771 51.6023C69.6771 51.1666 69.58 50.7914 69.3857 50.4768C69.1914 50.1379 68.8635 49.9685 68.402 49.9685C67.7705 49.9685 67.1027 50.2348 66.3983 50.7673C65.694 51.2998 65.0504 51.9654 64.4675 52.7642C63.8846 53.563 63.3988 54.4222 63.0102 55.342C62.6459 56.2618 62.4638 57.0969 62.4638 57.8473C62.4638 58.3556 62.5488 58.7065 62.7188 58.9002C62.9131 59.0938 63.1438 59.1906 63.411 59.1906C64.1396 59.1906 64.8682 58.9486 65.5968 58.4645C66.3497 57.9804 67.0177 57.3753 67.6006 56.6491C68.2077 55.8988 68.7057 55.0758 69.0942 54.1802C69.4828 53.2846 69.6771 52.4253 69.6771 51.6023ZM70.4786 52.038C70.4786 52.4011 70.4179 52.8005 70.2965 53.2362C70.175 53.6477 70.005 54.0591 69.7864 54.4706C69.5921 54.8579 69.3614 55.2452 69.0942 55.6325C68.8514 55.9956 68.5964 56.3102 68.3292 56.5765C68.4263 56.6249 68.5599 56.6491 68.7299 56.6491C69.3614 56.6491 69.9686 56.4918 70.5515 56.1771C71.1344 55.8382 71.6566 55.4025 72.118 54.87C72.3609 54.6038 72.5066 54.4343 72.5552 54.3617C72.6281 54.2891 72.6888 54.2528 72.7374 54.2528C72.8588 54.2528 72.9195 54.3133 72.9195 54.4343C72.9195 54.4828 72.8709 54.5674 72.7738 54.6885C72.6767 54.8095 72.4216 55.0879 72.0087 55.5236C71.5473 56.0077 71.0008 56.395 70.3693 56.6854C69.7622 56.9517 69.1064 57.0848 68.402 57.0848C68.1592 57.0848 68.0013 57.0727 67.9284 57.0485C67.3698 57.6778 66.7019 58.2708 65.9247 58.8276C65.1718 59.3601 64.2853 59.6263 63.2652 59.6263C62.5366 59.6263 61.978 59.3359 61.5894 58.755C61.2008 58.174 61.0065 57.3874 61.0065 56.395C61.0065 55.7414 61.0308 55.2936 61.0794 55.0516C61.1522 54.8095 61.1887 54.628 61.1887 54.507C61.1887 54.3617 61.1522 54.2891 61.0794 54.2891C60.9336 54.2891 60.8001 54.3859 60.6786 54.5796C60.5572 54.7732 60.4722 54.87 60.4236 54.87C60.2779 54.87 60.205 54.8095 60.205 54.6885C60.205 54.6401 60.2657 54.5311 60.3872 54.3617C60.5329 54.1923 60.7151 53.9986 60.9336 53.7808C61.1522 53.563 61.383 53.333 61.6258 53.091C61.8687 52.8489 62.0994 52.619 62.318 52.4011C63.3867 51.3845 64.4432 50.6583 65.4875 50.2226C66.5319 49.7628 67.467 49.5328 68.2927 49.5328C68.9971 49.5328 69.5314 49.7748 69.8957 50.259C70.2843 50.7188 70.4786 51.3119 70.4786 52.038ZM79.8782 49.5328C78.7609 51.324 77.8502 52.74 77.1459 53.7808C76.4658 54.7974 75.9315 55.6083 75.5429 56.2134C75.1786 56.7943 74.9236 57.2422 74.7778 57.5568C74.6564 57.8714 74.5957 58.2103 74.5957 58.5734C74.5957 58.7913 74.6564 58.9486 74.7778 59.0454C74.9236 59.1422 75.0693 59.1906 75.215 59.1906C75.6764 59.1906 76.2958 58.876 77.073 58.2466C77.8745 57.6173 78.7124 56.8306 79.5868 55.8866C80.4611 54.9426 81.3111 53.9139 82.1369 52.8005C82.987 51.6871 83.6913 50.6462 84.25 49.678L86.5816 49.5328C86.4115 49.8233 86.1565 50.2105 85.8165 50.6946C85.5007 51.1788 85.1364 51.7113 84.7236 52.2922C84.3106 52.8731 83.8856 53.4782 83.4485 54.1076C83.0356 54.7369 82.647 55.342 82.2827 55.923C81.9426 56.4797 81.6512 57.0001 81.4083 57.4842C81.1897 57.9441 81.0804 58.3071 81.0804 58.5734C81.0804 58.9849 81.2869 59.1906 81.6998 59.1906C81.9669 59.1906 82.392 58.997 82.9749 58.6097C83.5578 58.2225 84.2742 57.581 85.1243 56.6854C85.6586 56.1287 86.0715 55.693 86.363 55.3783C86.6787 55.0394 86.9094 54.7974 87.0552 54.6522C87.2009 54.4828 87.2858 54.3738 87.3102 54.3254C87.3587 54.277 87.4073 54.2528 87.4559 54.2528C87.5773 54.2528 87.6381 54.3133 87.6381 54.4343C87.6381 54.4585 87.5652 54.5674 87.4195 54.7611C87.2737 54.9305 87.0916 55.1363 86.873 55.3783C86.6544 55.6204 86.4115 55.8745 86.1444 56.1408C85.9015 56.4071 85.6829 56.6491 85.4886 56.867C84.5657 57.811 83.7884 58.5129 83.157 58.9728C82.5498 59.4085 82.0033 59.6263 81.5176 59.6263C81.2018 59.6263 80.9347 59.5537 80.7161 59.4085C80.5218 59.2391 80.3639 59.0333 80.2425 58.7913C80.1453 58.5492 80.0725 58.2951 80.0239 58.0288C79.9996 57.7625 79.9875 57.5205 79.9875 57.3026C79.9875 56.8428 80.0725 56.3828 80.2425 55.923L80.1697 55.8503C79.9025 56.1408 79.5746 56.5039 79.186 56.9396C78.7974 57.3511 78.3724 57.7625 77.9109 58.174C77.4494 58.5613 76.9758 58.9002 76.4901 59.1906C76.0286 59.4811 75.5914 59.6263 75.1786 59.6263C74.5957 59.6263 74.1706 59.4448 73.9035 59.0817C73.6363 58.6945 73.5027 58.2225 73.5027 57.6657C73.5027 56.988 73.6241 56.3465 73.8671 55.7414C74.1342 55.1121 74.4621 54.5311 74.8507 53.9986C75.2393 53.4419 75.6522 52.9094 76.0894 52.4011C76.5265 51.8686 76.9151 51.3482 77.2552 50.8399L77.1823 50.7673C76.6479 51.1788 76.0894 51.6871 75.5065 52.2922C74.9478 52.8973 74.3892 53.4903 73.8306 54.0713C73.5877 54.3375 73.442 54.507 73.3934 54.5796C73.3448 54.6522 73.2842 54.6885 73.2113 54.6885C73.1141 54.6885 73.0656 54.6159 73.0656 54.4706C73.0656 54.4465 73.0777 54.4102 73.102 54.3617C73.1505 54.2891 73.2356 54.1802 73.357 54.035C73.4784 53.8897 73.6606 53.6961 73.9035 53.454C74.1706 53.1878 74.5107 52.8368 74.9236 52.4011C75.2879 52.0138 75.7007 51.5902 76.1622 51.1303C76.6479 50.6705 77.2066 50.1863 77.8381 49.678L79.8782 49.5328ZM96.4061 42.7796L98.6648 42.6343L96.2968 46.2651H100.559C100.681 46.2651 100.741 46.3377 100.741 46.483C100.741 46.6282 100.681 46.7008 100.559 46.7008H96.0418C95.8473 47.0397 95.5441 47.5359 95.131 48.1894C94.7179 48.8188 94.2566 49.5328 93.7466 50.3316C93.2366 51.1062 92.7025 51.9291 92.1436 52.8005C91.6095 53.6719 91.1112 54.4948 90.6499 55.2694C90.2128 56.0198 89.8484 56.7096 89.5569 57.339C89.2655 57.9441 89.1198 58.3798 89.1198 58.646C89.1198 59.0091 89.3505 59.1906 89.812 59.1906C90.3709 59.1906 90.9655 58.9728 91.5972 58.5371C92.2529 58.0772 92.9939 57.4358 93.8195 56.6128C94.2807 56.1529 94.645 55.7777 94.9124 55.4873C95.2038 55.1726 95.4224 54.9305 95.5682 54.7611C95.738 54.5674 95.8473 54.4343 95.896 54.3617C95.9689 54.2649 96.0294 54.2165 96.0782 54.2165C96.1999 54.2165 96.2604 54.2891 96.2604 54.4343C96.2604 54.4585 96.1875 54.5554 96.0418 54.7248C95.9201 54.8942 95.7627 55.0879 95.5682 55.3057C95.3736 55.5236 95.1551 55.7535 94.9124 55.9956C94.6938 56.2376 94.4876 56.4554 94.2931 56.6491C93.1761 57.7625 92.2653 58.5371 91.5607 58.9728C90.8562 59.4085 90.2492 59.6263 89.7391 59.6263C89.1076 59.6022 88.6583 59.4085 88.3911 59.0454C88.1482 58.6582 88.0268 58.2588 88.0268 57.8473C88.0268 57.339 88.0997 56.8428 88.2454 56.3586C88.3911 55.8503 88.6097 55.3299 88.9012 54.7974C89.1926 54.2407 89.5448 53.6597 89.9577 53.0546C90.3949 52.4253 90.8809 51.7234 91.415 50.9488L91.3421 50.8762C91.0019 51.2877 90.6623 51.675 90.3221 52.038C90.0062 52.4011 89.6055 52.861 89.1198 53.4177C89.0469 53.5145 88.9254 53.6477 88.7555 53.8171C88.6097 53.9865 88.464 54.156 88.3183 54.3254C88.1726 54.4948 88.0389 54.6522 87.9175 54.7974C87.7961 54.9185 87.7232 54.979 87.699 54.979C87.5775 54.979 87.5168 54.9305 87.5168 54.8337C87.5168 54.8095 87.5289 54.7732 87.5532 54.7248C87.5775 54.6522 87.6382 54.5554 87.7354 54.4343C87.8568 54.3133 88.0147 54.1439 88.209 53.926C88.4276 53.684 88.719 53.3572 89.0833 52.9457C89.3505 52.6553 89.6783 52.2801 90.067 51.8202C90.4801 51.3603 90.905 50.852 91.3421 50.2953C91.8034 49.7385 92.2653 49.1576 92.7265 48.5525C93.2125 47.9231 93.6614 47.3059 94.0745 46.7008H92.763C92.6413 46.7008 92.5808 46.6282 92.5808 46.483C92.5808 46.3377 92.6296 46.2651 92.7265 46.2651H94.2566L96.4061 42.7796ZM104.154 43.7962C104.154 43.4815 104.264 43.179 104.482 42.8885C104.701 42.5738 105.016 42.4165 105.429 42.4165C105.697 42.4165 105.903 42.5133 106.049 42.707C106.194 42.8764 106.267 43.0942 106.267 43.3605C106.267 43.6751 106.158 43.9898 105.939 44.3045C105.721 44.595 105.405 44.7402 104.992 44.7402C104.725 44.7402 104.519 44.6554 104.373 44.486C104.227 44.2924 104.154 44.0625 104.154 43.7962ZM102.879 49.5328C101.786 51.324 100.899 52.7642 100.22 53.8534C99.5639 54.9185 99.0538 55.7656 98.6895 56.395C98.3493 57.0001 98.119 57.4479 97.9973 57.7383C97.8757 58.0046 97.8152 58.2345 97.8152 58.4282C97.8152 58.7428 97.8881 58.9486 98.0338 59.0454C98.1795 59.1422 98.3376 59.1906 98.5074 59.1906C98.7988 59.1906 99.1143 59.1059 99.4546 58.9365C99.7948 58.7671 100.147 58.5613 100.511 58.3193C100.875 58.053 101.227 57.7625 101.568 57.4479C101.932 57.1332 102.26 56.8185 102.551 56.5039C102.794 56.2618 103.037 56.0077 103.28 55.7414C103.547 55.451 103.778 55.1847 103.972 54.9426C104.191 54.7006 104.373 54.507 104.519 54.3617C104.664 54.1923 104.749 54.1076 104.774 54.1076C104.919 54.1076 104.992 54.1681 104.992 54.2891C104.992 54.3375 104.81 54.5796 104.446 55.0153C104.105 55.4268 103.547 56.0319 102.77 56.8306C100.972 58.6945 99.5398 59.6263 98.4709 59.6263C97.9121 59.6263 97.4749 59.4569 97.1594 59.118C96.868 58.755 96.7223 58.2951 96.7223 57.7383C96.7223 57.1332 96.8439 56.5281 97.0866 55.923C97.3292 55.3178 97.6207 54.7248 97.9609 54.1439C98.3252 53.563 98.7019 53.0062 99.0903 52.4737C99.5034 51.9412 99.8677 51.445 100.183 50.9851L100.11 50.9125C99.8918 51.1303 99.5398 51.4934 99.0538 52.0017C98.5679 52.51 97.888 53.2604 97.0137 54.2528C96.8192 54.4706 96.6982 54.6038 96.6494 54.6522C96.6006 54.7006 96.5525 54.7248 96.5037 54.7248C96.4067 54.7248 96.3579 54.6522 96.3579 54.507C96.3579 54.4585 96.4184 54.3738 96.5401 54.2528C96.6618 54.1076 96.9649 53.7566 97.4509 53.1999C97.6935 52.9336 97.9609 52.6431 98.2524 52.3285C98.5679 51.9896 98.8717 51.6628 99.1631 51.3482C99.4546 51.0093 99.722 50.6946 99.9646 50.4042C100.232 50.1137 100.438 49.8717 100.584 49.678L102.879 49.5328ZM106.911 58.174C106.911 58.4161 106.96 58.646 107.057 58.8639C107.179 59.0817 107.336 59.1906 107.531 59.1906C108.235 59.1906 109 58.9002 109.826 58.3193C110.651 57.7142 111.416 57.0001 112.121 56.1771C112.85 55.3299 113.445 54.4585 113.906 53.563C114.392 52.6674 114.635 51.917 114.635 51.3119C114.635 50.8278 114.525 50.4889 114.307 50.2953C114.112 50.0774 113.773 49.9685 113.287 49.9685C112.728 49.9685 112.085 50.2226 111.356 50.731C110.627 51.2151 109.935 51.8565 109.279 52.6553C108.624 53.454 108.065 54.3375 107.603 55.3057C107.142 56.2739 106.911 57.23 106.911 58.174ZM118.533 49.7506L108.842 66.0891L108.915 66.1617C110.372 64.3222 111.878 62.5188 113.432 60.7519C115.011 58.9849 116.566 57.2663 118.096 55.5962C118.679 54.9668 119.031 54.5796 119.152 54.4343C119.298 54.2649 119.395 54.1802 119.444 54.1802C119.589 54.1802 119.662 54.2528 119.662 54.398C119.662 54.4222 119.541 54.5674 119.298 54.8337C119.079 55.0758 118.812 55.3662 118.496 55.7051C118.205 56.0198 117.901 56.3465 117.586 56.6854C117.294 57.0001 117.076 57.2422 116.93 57.4116C116.493 57.9199 115.837 58.646 114.963 59.59C114.112 60.534 113.19 61.5628 112.194 62.6762C111.223 63.8138 110.263 64.9636 109.316 66.1254C108.393 67.2873 107.664 68.3281 107.13 69.2479L104.798 69.502L113.032 55.9956L112.959 55.923C112.789 56.1166 112.509 56.4191 112.121 56.8306C111.733 57.2422 111.283 57.6536 110.773 58.0651C110.263 58.4766 109.729 58.8397 109.17 59.1543C108.611 59.469 108.077 59.6263 107.567 59.6263C106.862 59.6263 106.328 59.3359 105.964 58.755C105.624 58.1498 105.454 57.3511 105.454 56.3586C105.454 55.8988 105.49 55.4873 105.563 55.1242C105.66 54.7369 105.709 54.5191 105.709 54.4706C105.709 54.4222 105.673 54.398 105.6 54.398C105.454 54.398 105.357 54.4585 105.308 54.5796C105.26 54.7006 105.211 54.7611 105.163 54.7611C105.139 54.7611 105.102 54.749 105.053 54.7248C105.005 54.6764 104.98 54.6038 104.98 54.507C104.98 54.4585 105.102 54.3012 105.345 54.035C105.612 53.7445 105.952 53.3814 106.365 52.9457C106.924 52.3648 107.518 51.8686 108.15 51.4571C108.782 51.0214 109.401 50.6705 110.008 50.4042C110.64 50.1137 111.234 49.8959 111.793 49.7506C112.352 49.6054 112.85 49.5328 113.287 49.5328C113.797 49.5328 114.222 49.6659 114.562 49.9322C114.902 50.1985 115.072 50.6583 115.072 51.3119C115.072 51.4571 115.035 51.675 114.963 51.9654C114.914 52.2317 114.877 52.4253 114.853 52.5463L114.926 52.619L116.529 49.8233L118.533 49.7506ZM126.536 49.5328C125.418 51.324 124.508 52.74 123.804 53.7808C123.123 54.7974 122.589 55.6083 122.201 56.2134C121.836 56.7943 121.581 57.2422 121.436 57.5568C121.314 57.8714 121.253 58.2103 121.253 58.5734C121.253 58.7913 121.314 58.9486 121.436 59.0454C121.581 59.1422 121.727 59.1906 121.873 59.1906C122.334 59.1906 122.953 58.876 123.731 58.2466C124.532 57.6173 125.37 56.8306 126.245 55.8866C127.119 54.9426 127.969 53.9139 128.795 52.8005C129.644 51.6871 130.349 50.6462 130.908 49.678L133.239 49.5328C133.069 49.8233 132.814 50.2105 132.474 50.6946C132.158 51.1788 131.794 51.7113 131.381 52.2922C130.968 52.8731 130.543 53.4782 130.106 54.1076C129.693 54.7369 129.305 55.342 128.94 55.923C128.6 56.4797 128.309 57.0001 128.066 57.4842C127.848 57.9441 127.738 58.3071 127.738 58.5734C127.738 58.9849 127.944 59.1906 128.358 59.1906C128.624 59.1906 129.05 58.997 129.633 58.6097C130.216 58.2225 130.932 57.581 131.782 56.6854C132.316 56.1287 132.729 55.693 133.021 55.3783C133.336 55.0394 133.567 54.7974 133.713 54.6522C133.859 54.4828 133.943 54.3738 133.968 54.3254C134.016 54.277 134.065 54.2528 134.114 54.2528C134.235 54.2528 134.296 54.3133 134.296 54.4343C134.296 54.4585 134.223 54.5674 134.077 54.7611C133.932 54.9305 133.749 55.1363 133.531 55.3783C133.312 55.6204 133.069 55.8745 132.802 56.1408C132.559 56.4071 132.34 56.6491 132.146 56.867C131.223 57.811 130.446 58.5129 129.815 58.9728C129.207 59.4085 128.661 59.6263 128.175 59.6263C127.859 59.6263 127.593 59.5537 127.374 59.4085C127.179 59.2391 127.021 59.0333 126.9 58.7913C126.803 58.5492 126.73 58.2951 126.682 58.0288C126.657 57.7625 126.645 57.5205 126.645 57.3026C126.645 56.8428 126.73 56.3828 126.9 55.923L126.827 55.8503C126.56 56.1408 126.232 56.5039 125.844 56.9396C125.455 57.3511 125.03 57.7625 124.569 58.174C124.107 58.5613 123.633 58.9002 123.148 59.1906C122.686 59.4811 122.249 59.6263 121.836 59.6263C121.253 59.6263 120.828 59.4448 120.561 59.0817C120.294 58.6945 120.161 58.2225 120.161 57.6657C120.161 56.988 120.282 56.3465 120.525 55.7414C120.792 55.1121 121.119 54.5311 121.508 53.9986C121.897 53.4419 122.31 52.9094 122.747 52.4011C123.184 51.8686 123.573 51.3482 123.913 50.8399L123.84 50.7673C123.305 51.1788 122.747 51.6871 122.164 52.2922C121.605 52.8973 121.047 53.4903 120.488 54.0713C120.245 54.3375 120.099 54.507 120.051 54.5796C120.002 54.6522 119.942 54.6885 119.869 54.6885C119.772 54.6885 119.723 54.6159 119.723 54.4706C119.723 54.4465 119.735 54.4102 119.76 54.3617C119.808 54.2891 119.893 54.1802 120.015 54.035C120.136 53.8897 120.318 53.6961 120.561 53.454C120.828 53.1878 121.168 52.8368 121.581 52.4011C121.946 52.0138 122.358 51.5902 122.82 51.1303C123.305 50.6705 123.864 50.1863 124.496 49.678L126.536 49.5328ZM142.043 49.9685C141.558 49.9685 141.023 50.1742 140.44 50.5857C139.857 50.973 139.287 51.4571 138.728 52.038C138.194 52.619 137.72 53.2362 137.307 53.8897C136.895 54.5433 136.627 55.1242 136.506 55.6325C137.113 55.5599 137.781 55.3905 138.51 55.1242C139.238 54.8337 139.919 54.4706 140.55 54.035C141.181 53.5751 141.704 53.0668 142.116 52.51C142.553 51.9291 142.772 51.3119 142.772 50.6583C142.772 50.1985 142.529 49.9685 142.043 49.9685ZM143.865 51.2756C143.865 51.9533 143.573 52.5705 142.991 53.1273C142.408 53.6597 141.715 54.1318 140.914 54.5433C140.112 54.9305 139.287 55.2573 138.437 55.5236C137.587 55.7898 136.895 55.9714 136.36 56.0682C136.312 56.2618 136.276 56.4676 136.251 56.6854C136.227 56.8791 136.214 57.0727 136.214 57.2663C136.214 57.9683 136.324 58.4645 136.542 58.755C136.786 59.0212 137.186 59.1665 137.744 59.1906C138.23 59.2148 138.923 59.0212 139.821 58.6097C140.72 58.174 141.728 57.4116 142.845 56.3223C143.549 55.5962 144.023 55.0637 144.266 54.7248C144.533 54.3859 144.703 54.2165 144.776 54.2165C144.897 54.2165 144.958 54.2891 144.958 54.4343C144.958 54.4828 144.873 54.6038 144.703 54.7974C144.557 54.9911 144.363 55.2331 144.12 55.5236C143.877 55.7898 143.598 56.0803 143.282 56.395C142.991 56.7096 142.711 56.988 142.444 57.23C141.522 58.0772 140.671 58.6823 139.894 59.0454C139.141 59.4085 138.34 59.6022 137.489 59.6263C136.979 59.6263 136.542 59.5174 136.178 59.2996C135.838 59.0817 135.547 58.7913 135.304 58.4282C135.061 58.0651 134.879 57.6536 134.757 57.1937C134.66 56.7338 134.611 56.2618 134.611 55.7777C134.611 55.5114 134.624 55.2815 134.648 55.0879C134.697 54.8942 134.721 54.7732 134.721 54.7248C134.721 54.6764 134.709 54.6522 134.684 54.6522C134.611 54.7248 134.575 54.7611 134.575 54.7611C134.551 54.7611 134.514 54.7369 134.466 54.6885C134.418 54.6401 134.393 54.5917 134.393 54.5433C134.393 54.5191 134.442 54.4343 134.539 54.2891C134.66 54.1439 134.794 53.9865 134.939 53.8171C135.11 53.6477 135.267 53.4903 135.413 53.3451C135.559 53.1757 135.668 53.0546 135.741 52.982C136.761 51.9654 137.817 51.1425 138.91 50.5131C140.003 49.8596 141.048 49.5328 142.043 49.5328C142.602 49.5328 143.039 49.7022 143.355 50.0411C143.695 50.3558 143.865 50.7673 143.865 51.2756Z" fill="#232323"/>
</svg>
